<svg width="34" height="32" viewBox="0 0 34 32" fill="none" xmlns="http://www.w3.org/2000/svg">
<path d="M29.9936 17.9013C32.279 17.4405 34 15.4212 34 13C34 10.5788 32.279 8.55953 29.9936 8.09873C29.4522 7.98957 29 8.44772 29 9V17C29 17.5523 29.4522 18.0104 29.9936 17.9013Z" fill="#408DF2"/>
<path d="M0 8C0 7.44772 0.447715 7 1 7H7V19H1C0.447715 19 0 18.5523 0 18V8Z" fill="#408DF2"/>
<path d="M4 19H11L11.9172 30.9233C11.9619 31.5041 11.5026 32 10.9201 32H5.92603C5.40349 32 4.96905 31.5977 4.92898 31.0767L4 19Z" fill="#408DF2"/>
<path d="M7 7L25.6697 0.465622C26.3198 0.238061 27 0.720633 27 1.40948V24.5905C27 25.2794 26.3198 25.7619 25.6696 25.5344L7 19V7Z" fill="#98CEFF"/>
</svg>
