<svg width="48" height="48" viewBox="0 0 48 48" fill="none" xmlns="http://www.w3.org/2000/svg">
<path d="M31.0156 8.17017L39.8304 16.9849L21.1451 35.6702C20.7545 36.0607 20.1214 36.0607 19.7308 35.6702L12.3303 28.2697C11.9398 27.8792 11.9398 27.246 12.3303 26.8555L31.0156 8.17017Z" fill="#98CEFF"/>
<rect x="33.6592" y="5.52588" width="12.4659" height="4.98636" transform="rotate(45 33.6592 5.52588)" fill="#408DF2"/>
<rect x="32.8496" y="17.1213" width="18" height="3" rx="1" transform="rotate(135 32.8496 17.1213)" fill="#408DF2"/>
<path d="M35.7704 3.41421C36.5514 2.63317 37.8177 2.63316 38.5988 3.41421L44.5851 9.40052C45.3661 10.1816 45.3661 11.4479 44.5851 12.2289L42.4734 14.3406L33.6587 5.52589L35.7704 3.41421Z" fill="#98CEFF"/>
<path d="M7.22193 42.0454C6.43765 42.3104 5.68942 41.5622 5.95443 40.7779L9.48381 30.3331C9.72121 29.6306 10.6139 29.4218 11.1383 29.9461L18.0537 36.8616C18.5781 37.3859 18.3693 38.2786 17.6667 38.516L7.22193 42.0454Z" fill="#98CEFF"/>
<path d="M7.22343 42.0455C6.43916 42.3105 5.69092 41.5622 5.95593 40.778L7.13938 37.2757C7.37678 36.5731 8.26948 36.3643 8.79386 36.8887L11.1127 39.2075C11.6371 39.7319 11.4283 40.6246 10.7257 40.862L7.22343 42.0455Z" fill="#408DF2"/>
</svg>
