<svg width="16" height="16" viewBox="0 0 16 16" fill="none" xmlns="http://www.w3.org/2000/svg">
<rect width="16" height="16" fill="white"/>
<rect x="1.33325" y="3.28284" width="13.3333" height="11.3131" rx="0.808081" fill="#BFE0FF"/>
<path d="M1.33325 4.09092C1.33325 3.64463 1.69504 3.28284 2.14133 3.28284H13.8585C14.3048 3.28284 14.6666 3.64463 14.6666 4.09092V6.51516H1.33325V4.09092Z" fill="#408DF2"/>
<rect x="4.96973" y="1.66663" width="2.0202" height="4.44444" rx="0.808081" fill="#408DF2"/>
<rect x="4.56567" y="8.13123" width="1.21212" height="1.21212" rx="0.606061" fill="#408DF2"/>
<rect x="7.39404" y="8.13123" width="1.21212" height="1.21212" rx="0.606061" fill="#408DF2"/>
<rect x="10.2222" y="8.13123" width="1.21212" height="1.21212" rx="0.606061" fill="#408DF2"/>
<rect x="4.56567" y="10.9596" width="1.21212" height="1.21212" rx="0.606061" fill="#408DF2"/>
<rect x="7.39404" y="10.9596" width="1.21212" height="1.21212" rx="0.606061" fill="#408DF2"/>
<rect x="10.2222" y="10.9596" width="1.21212" height="1.21212" rx="0.606061" fill="#408DF2"/>
<rect x="9.41406" y="1.66663" width="2.0202" height="4.44444" rx="0.808081" fill="#408DF2"/>
</svg>
