<svg width="24" height="24" viewBox="0 0 24 24" fill="none" xmlns="http://www.w3.org/2000/svg">
<circle cx="12" cy="12" r="12" fill="#408DF2"/>
<path d="M11.9944 7C12.4755 7 12.8626 7.3954 12.8523 7.87634L12.7446 12.9371C12.7359 13.3425 12.4048 13.6667 11.9993 13.6667C11.5944 13.6667 11.2635 13.3434 11.2541 12.9386L11.1366 7.878C11.1254 7.39643 11.5127 7 11.9944 7ZM11.0001 15.9344C10.9936 15.3607 11.4517 14.8893 12.0065 14.8825C12.542 14.8893 13 15.3607 13 15.9344C13 16.5219 12.542 17 12.0065 17C11.4517 17 10.9936 16.5219 11.0001 15.9344Z" fill="white"/>
</svg>
