<svg width="24" height="24" viewBox="0 0 24 24" fill="none" xmlns="http://www.w3.org/2000/svg">
<rect width="24" height="24" fill="#F3F4F6"/>
<path d="M14 12C14 13.1046 13.1046 14 12 14C10.8954 14 10 13.1046 10 12C10 10.8954 10.8954 10 12 10C13.1046 10 14 10.8954 14 12Z" fill="#C0C7D0"/>
<path d="M9.64706 3.17647C9.64706 2.52672 10.1738 2 10.8235 2H13.1765C13.8262 2 14.3529 2.52672 14.3529 3.17647V4.10993C14.3529 4.47463 14.5921 4.79413 14.9289 4.93391C15.2659 5.07377 15.6573 5.0152 15.9153 4.75718L16.5754 4.09711C17.0348 3.63767 17.7797 3.63767 18.2392 4.09711L19.903 5.76089C20.3624 6.22033 20.3624 6.96523 19.903 7.42467L19.2429 8.08476C18.9849 8.34278 18.9263 8.73417 19.0661 9.0712C19.2059 9.40807 19.5254 9.6472 19.8902 9.6472H20.8235C21.4733 9.6472 22 10.1739 22 10.8237V13.1766C22 13.8264 21.4733 14.3531 20.8235 14.3531H19.89C19.5253 14.3531 19.2058 14.5922 19.066 14.929C18.9262 15.266 18.9848 15.6574 19.2428 15.9154L19.9029 16.5755C20.3623 17.035 20.3623 17.7799 19.9029 18.2393L18.2391 19.9031C17.7797 20.3625 17.0348 20.3625 16.5753 19.9031L15.9151 19.2428C15.6571 18.9849 15.2658 18.9263 14.9288 19.0661C14.592 19.2059 14.3529 19.5253 14.3529 19.89V20.8235C14.3529 21.4733 13.8262 22 13.1765 22H10.8235C10.1738 22 9.64706 21.4733 9.64706 20.8235V19.8901C9.64706 19.5254 9.40794 19.2059 9.07109 19.0661C8.73407 18.9262 8.34268 18.9848 8.08467 19.2428L7.42455 19.9029C6.96511 20.3624 6.22021 20.3624 5.76077 19.9029L4.09699 18.2392C3.63755 17.7797 3.63755 17.0348 4.09699 16.5754L4.75718 15.9152C5.01517 15.6572 5.07373 15.2659 4.93389 14.9289C4.79412 14.592 4.47465 14.3529 4.10998 14.3529H3.17647C2.52672 14.3529 2 13.8262 2 13.1765V10.8235C2 10.1738 2.52672 9.64706 3.17647 9.64706H4.10998C4.47465 9.64706 4.79413 9.40796 4.9339 9.07113C5.07373 8.73414 5.01517 8.3428 4.75718 8.08481L4.09706 7.42469C3.63762 6.96525 3.63763 6.22036 4.09707 5.76091L5.76085 4.09713C6.22029 3.63769 6.96519 3.63769 7.42463 4.09713L8.08468 4.75718C8.34269 5.0152 8.73407 5.07377 9.07109 4.93391C9.40794 4.79413 9.64706 4.47463 9.64706 4.10993V3.17647Z" fill="#C0C7D0"/>
<circle cx="12" cy="12" r="2.94118" fill="#F3F4F6"/>
</svg>
