<svg width="48" height="48" viewBox="0 0 48 48" fill="none" xmlns="http://www.w3.org/2000/svg">
<path d="M18.4531 20.5622C18.4531 19.8187 18.9218 19.1535 19.6022 18.8369C21.0883 18.1451 23.6198 16.7551 24.7616 14.876C26.2333 12.4536 26.5109 8.07738 26.556 7.07515C26.5623 6.93464 26.5587 6.79413 26.5776 6.6554C26.8218 4.91862 30.2185 6.94709 31.5208 9.09206C32.2282 10.2553 32.3183 11.784 32.2444 12.9783C32.1642 14.2553 31.7848 15.4887 31.4126 16.7142L30.6195 19.326H40.404C40.6825 19.326 40.9572 19.3897 41.2066 19.512C41.4559 19.6344 41.6732 19.812 41.8413 20.0312C42.0093 20.2503 42.1237 20.5048 42.1753 20.7748C42.227 21.0449 42.2145 21.323 42.1389 21.5875L37.2993 38.4983C37.1925 38.8713 36.9651 39.1996 36.6518 39.4333C36.3385 39.667 35.9564 39.7934 35.5636 39.7931H20.2556C19.7775 39.7931 19.3191 39.6057 18.981 39.2722C18.643 38.9386 18.4531 38.4862 18.4531 38.0145V20.5622Z" fill="#98CEFF" stroke="#98CEFF" stroke-width="2" stroke-linecap="round" stroke-linejoin="round"/>
<rect x="6" y="19.2759" width="8.44828" height="21.7241" rx="2" fill="#408DF2"/>
</svg>
