<svg width="48" height="48" viewBox="0 0 48 48" fill="none" xmlns="http://www.w3.org/2000/svg">
<path d="M8.11749 22.1111C8.05369 20.9647 8.96615 20 10.1144 20H37.8856C39.0338 20 39.9463 20.9647 39.8825 22.1111L38.8251 41.1111C38.7661 42.1709 37.8896 43 36.8282 43H11.1718C10.1104 43 9.23386 42.1709 9.17488 41.1111L8.11749 22.1111Z" fill="#98CEFF"/>
<rect x="16" y="7" width="7" height="7" rx="3.5" stroke="#408DF2" stroke-width="4"/>
<rect x="25" y="7" width="7" height="7" rx="3.5" stroke="#408DF2" stroke-width="4"/>
<rect x="20" y="20" width="8" height="23" fill="#408DF2"/>
<path d="M7 13C7 11.8954 7.89543 11 9 11H39C40.1046 11 41 11.8954 41 13V15C41 16.1046 40.1046 17 39 17H9C7.89543 17 7 16.1046 7 15V13Z" fill="#408DF2"/>
</svg>
