<svg width="44" height="44" viewBox="0 0 44 44" fill="none" xmlns="http://www.w3.org/2000/svg">
<rect width="44" height="44" rx="8" fill="black"/>
<path d="M29.7338 27.3531C29.444 28.0228 29.1009 28.6392 28.7034 29.2059C28.1615 29.9784 27.7178 30.5132 27.3759 30.8101C26.8459 31.2976 26.278 31.5472 25.6699 31.5614C25.2334 31.5614 24.7069 31.4372 24.094 31.1852C23.4792 30.9344 22.9141 30.8101 22.3975 30.8101C21.8556 30.8101 21.2745 30.9344 20.6529 31.1852C20.0304 31.4372 19.5288 31.5685 19.1454 31.5815C18.5623 31.6064 17.981 31.3496 17.4008 30.8101C17.0305 30.4872 16.5673 29.9335 16.0125 29.1491C15.4171 28.3114 14.9277 27.3401 14.5442 26.2328C14.1336 25.0367 13.9277 23.8784 13.9277 22.7571C13.9277 21.4726 14.2053 20.3647 14.7612 19.4364C15.1981 18.6907 15.7794 18.1024 16.5069 17.6706C17.2344 17.2388 18.0204 17.0187 18.8669 17.0047C19.3301 17.0047 19.9375 17.1479 20.6923 17.4295C21.445 17.712 21.9283 17.8553 22.1402 17.8553C22.2986 17.8553 22.8355 17.6878 23.7456 17.3538C24.6063 17.044 25.3327 16.9158 25.9278 16.9663C27.5404 17.0965 28.7519 17.7321 29.5576 18.8774C28.1154 19.7512 27.402 20.9751 27.4162 22.5452C27.4292 23.7681 27.8728 24.7858 28.7448 25.5939C29.1399 25.9689 29.5812 26.2588 30.0722 26.4646C29.9657 26.7734 29.8533 27.0692 29.7338 27.3531ZM26.0355 12.7999C26.0355 13.7585 25.6853 14.6535 24.9873 15.4819C24.1449 16.4667 23.126 17.0358 22.0211 16.946C22.0071 16.831 21.9989 16.7099 21.9989 16.5828C21.9989 15.6626 22.3995 14.6777 23.1109 13.8725C23.4661 13.4648 23.9178 13.1259 24.4655 12.8554C25.0121 12.589 25.5291 12.4417 26.0154 12.4165C26.0296 12.5446 26.0355 12.6728 26.0355 12.7999V12.7999Z" fill="white"/>
</svg>
