<svg width="12" height="12" viewBox="0 0 12 12" fill="none" xmlns="http://www.w3.org/2000/svg">
<path d="M6 11.1665C6.75709 11.1665 7.41593 10.7458 7.75553 10.1255C8.02072 9.64103 7.55228 9.1665 7 9.1665H5C4.44772 9.1665 3.97928 9.64103 4.24447 10.1255C4.58407 10.7458 5.24291 11.1665 6 11.1665Z" fill="#408DF2"/>
<path d="M2.33398 3.83329C2.33398 1.80825 3.97561 0.166626 6.00065 0.166626C8.02569 0.166626 9.66732 1.80825 9.66732 3.83329V6.49996H2.33398V3.83329Z" fill="#98CEFF"/>
<path d="M2.33366 6.49988H9.66699L9.96684 6.85969C10.5096 7.51102 10.0465 8.49988 9.19862 8.49988H2.80204C1.9542 8.49988 1.49104 7.51102 2.03381 6.85969L2.33366 6.49988Z" fill="#98CEFF"/>
</svg>
