<svg width="61" height="61" viewBox="0 0 61 61" fill="none" xmlns="http://www.w3.org/2000/svg">
<path d="M7.13934 17.6947L23.4918 0L42.6475 5.58779L59 24.2137L55.2623 46.0992L48.7213 53.084L35.6393 61L14.6148 56.8092L2 37.7176L7.13934 17.6947Z" fill="#C0C7D0"/>
<path fill-rule="evenodd" clip-rule="evenodd" d="M31.75 25.5C31.75 25.0858 31.4142 24.75 31 24.75C30.5858 24.75 30.25 25.0858 30.25 25.5V30.75H25.5C25.0858 30.75 24.75 31.0858 24.75 31.5C24.75 31.9142 25.0858 32.25 25.5 32.25H30.25V36.5C30.25 36.9142 30.5858 37.25 31 37.25C31.4142 37.25 31.75 36.9142 31.75 36.5V32.25H36.5C36.9142 32.25 37.25 31.9142 37.25 31.5C37.25 31.0858 36.9142 30.75 36.5 30.75H31.75V25.5Z" fill="#F3F4F6"/>
</svg>
