<svg width="48" height="48" viewBox="0 0 48 48" fill="none" xmlns="http://www.w3.org/2000/svg">
<path d="M29.5469 27.4378C29.5469 28.1813 29.0782 28.8465 28.3978 29.1631C26.9117 29.8549 24.3802 31.2449 23.2384 33.124C21.7667 35.5464 21.4891 39.9226 21.444 40.9248C21.4377 41.0654 21.4413 41.2059 21.4224 41.3446C21.1782 43.0814 17.7815 41.0529 16.4792 38.9079C15.7718 37.7447 15.6817 36.216 15.7556 35.0217C15.8358 33.7447 16.2152 32.5113 16.5874 31.2858L17.3805 28.674L7.59597 28.674C7.31749 28.674 7.04279 28.6103 6.79343 28.488C6.54406 28.3656 6.32682 28.1879 6.15874 27.9688C5.99066 27.7497 5.87632 27.4952 5.82468 27.2252C5.77305 26.9551 5.78552 26.677 5.86113 26.4125L10.7007 9.50171C10.8075 9.12874 11.0349 8.80041 11.3482 8.56669C11.6615 8.33296 12.0436 8.20662 12.4364 8.2069L27.7444 8.2069C28.2225 8.2069 28.6809 8.39428 29.019 8.72783C29.357 9.06138 29.5469 9.51377 29.5469 9.98548L29.5469 27.4378Z" fill="#98CEFF" stroke="#98CEFF" stroke-width="2" stroke-linecap="round" stroke-linejoin="round"/>
<rect x="42" y="28.7241" width="8.44828" height="21.7241" rx="2" transform="rotate(-180 42 28.7241)" fill="#408DF2"/>
</svg>
